<?xml version="1.0" standalone="no"?>
<!DOCTYPE svg PUBLIC "-//W3C//DTD SVG 20010904//EN"
 "http://www.w3.org/TR/2001/REC-SVG-20010904/DTD/svg10.dtd">
<svg version="1.0" xmlns="http://www.w3.org/2000/svg"
 width="512.000000pt" height="512.000000pt" viewBox="0 0 512.000000 512.000000"
 preserveAspectRatio="xMidYMid meet">
<metadata>
Created by potrace 1.11, written by Peter Selinger 2001-2013
</metadata>
<g transform="translate(0.000000,512.000000) scale(0.100000,-0.100000)"
fill="#000000" stroke="none">
<path d="M0 2560 l0 -2390 370 0 370 0 -2 1852 -3 1853 -37 90 c-30 74 -211
568 -214 585 0 3 -4 12 -7 20 -6 14 -73 199 -116 325 l-18 50 -171 3 -172 2 0
-2390z"/>
<path d="M486 4823 c25 -71 70 -195 99 -278 29 -82 73 -206 98 -275 44 -120
296 -826 399 -1115 27 -77 58 -162 68 -190 10 -27 30 -84 45 -125 15 -41 35
-97 45 -125 10 -27 43 -120 73 -205 31 -85 87 -243 125 -350 39 -107 150 -418
247 -690 97 -272 208 -580 245 -685 38 -104 94 -262 125 -350 30 -88 60 -169
65 -180 5 -11 13 -33 18 -50 l9 -30 402 0 403 0 25 70 c61 170 168 469 203
565 21 58 77 211 123 340 47 129 128 357 182 505 53 149 131 365 172 480 89
248 120 334 288 800 24 66 64 176 88 245 25 69 66 184 92 255 26 72 71 198
100 280 29 83 58 161 63 175 6 14 25 66 42 115 17 50 35 99 40 110 4 11 45
124 90 250 46 127 98 273 117 325 19 52 48 132 63 178 l29 82 -455 0 c-355 0
-456 -3 -459 -12 -2 -7 -41 -128 -86 -268 -45 -140 -92 -286 -104 -325 -13
-38 -69 -212 -125 -385 -56 -173 -116 -360 -134 -415 -19 -55 -61 -188 -96
-295 -34 -107 -73 -226 -85 -265 -59 -180 -152 -466 -240 -740 -53 -165 -102
-318 -110 -340 -52 -151 -215 -664 -215 -675 0 -51 -33 45 -295 860 -29 91
-73 228 -98 305 -25 77 -66 205 -92 285 -26 80 -55 170 -65 200 -11 30 -62
190 -115 355 -54 165 -107 332 -120 370 -13 39 -62 192 -110 340 -47 149 -90
281 -95 295 -5 14 -59 179 -120 368 l-111 342 -449 0 -449 0 45 -127z"/>
<path d="M4771 4928 c-4 -13 -18 -52 -30 -88 -13 -36 -26 -72 -29 -80 -3 -8
-6 -17 -7 -20 -2 -6 -11 -29 -30 -80 -7 -19 -27 -75 -45 -125 -17 -49 -38
-106 -45 -125 -8 -19 -56 -150 -107 -290 l-93 -255 -3 -1847 -2 -1848 370 0
370 0 0 2390 0 2390 -170 0 c-168 0 -171 0 -179 -22z"/>
</g>
</svg>
